<svg width="42" height="40" viewBox="0 0 42 40" fill="none" xmlns="http://www.w3.org/2000/svg">
<path d="M6.0627 0C2.73571 0 0 2.61999 0 5.78736V34.2126C0 37.38 2.73571 40 6.0627 40H35.9373C39.2643 40 42 37.38 42 34.2126V5.78736C42 2.61999 39.2643 0 35.9373 0H6.0627ZM6.0627 4.00275H14.6973V18.0064C14.7125 19.777 16.9592 20.6566 18.2783 19.4084L21.0103 16.8271L23.7217 19.4084C25.0408 20.6566 27.2875 19.7771 27.3027 18.0064V4.00275H35.9373C36.9942 4.00275 37.7996 4.78118 37.7996 5.78736V34.2126C37.7996 35.2188 36.9942 36.0012 35.9373 36.0012H6.0627C5.00578 36.0012 4.20451 35.2188 4.20451 34.2126V5.78736C4.20451 4.78118 5.00578 4.00275 6.0627 4.00275ZM18.8977 4.00275H23.1023V13.1797L22.4829 12.5901C21.6636 11.8148 20.3405 11.8148 19.5212 12.5901L18.8977 13.1797L18.8977 4.00275Z" fill="#FFA100"/>
</svg>
