<svg width="44" height="42" viewBox="0 0 44 42" fill="none" xmlns="http://www.w3.org/2000/svg">
<path d="M29.1194 27.7799C30.3479 26.6059 30.5137 24.8659 29.489 23.8879C28.4642 22.9119 26.6351 23.0699 25.4045 24.2419C24.176 25.4139 22.3469 25.5719 21.3222 24.5959C20.2974 23.6199 20.4633 21.8779 21.6939 20.7079M21.6939 20.7079L20.9505 19.9999M21.6939 20.7079C22.3889 20.0439 23.2751 19.7079 24.1004 19.7139M29.8607 28.4859L29.1173 27.7779C28.2773 28.5799 27.1538 28.9079 26.2004 28.7199M14.8752 18.7579C15.7059 18.7579 16.5179 18.5233 17.2086 18.0837C17.8993 17.6442 18.4376 17.0195 18.7555 16.2886C19.0734 15.5577 19.1565 14.7534 18.9945 13.9775C18.8324 13.2015 18.4324 12.4888 17.8451 11.9294C17.2577 11.37 16.5093 10.989 15.6946 10.8347C14.8799 10.6803 14.0354 10.7595 13.268 11.0623C12.5006 11.3651 11.8446 11.8777 11.3831 12.5355C10.9216 13.1933 10.6753 13.9667 10.6753 14.7578" stroke="#FFA100" stroke-width="1.5" stroke-linecap="round"/>
<path d="M30.6878 6.45577C27.4413 3.36575 25.8201 1.81974 23.7138 1.24573C21.6076 0.66973 19.3711 1.16173 14.9002 2.14574L12.3215 2.71174C8.55832 3.53775 6.67675 3.95175 5.38736 5.17776C4.10008 6.40577 3.66538 8.19778 2.79809 11.7818L2.2017 14.2378C1.17061 18.4979 0.654019 20.6259 1.25671 22.6319C1.8615 24.6379 3.48479 26.1819 6.72925 29.2719L10.5722 32.9319C16.2211 38.314 19.0435 41 22.5504 41C26.0595 41 28.8819 38.31 34.5287 32.9319C40.1797 27.5539 43 24.8659 43 21.5239C43 18.8399 41.1772 16.5758 37.5317 12.9998" stroke="#FFA100" stroke-width="1.5" stroke-linecap="round"/>
</svg>
