<svg width="44" height="42" viewBox="0 0 44 42" fill="none" xmlns="http://www.w3.org/2000/svg">
<path fill-rule="evenodd" clip-rule="evenodd" d="M30.9996 1H37.8594C40.6976 1 43 3.2118 43 5.94036V12.5282C43 15.2547 40.6976 17.4686 37.8594 17.4686H30.9996C28.1592 17.4686 25.8568 15.2547 25.8568 12.5282V5.94036C25.8568 3.2118 28.1592 1 30.9996 1ZM6.14273 1H13.0004C15.8408 1 18.1432 3.2118 18.1432 5.94036V12.5282C18.1432 15.2547 15.8408 17.4686 13.0004 17.4686H6.14273C3.3024 17.4686 1 15.2547 1 12.5282V5.94036C1 3.2118 3.3024 1 6.14273 1ZM6.14273 24.5314H13.0004C15.8408 24.5314 18.1432 26.7432 18.1432 29.4739V36.0596C18.1432 38.7882 15.8408 41 13.0004 41H6.14273C3.3024 41 1 38.7882 1 36.0596V29.4739C1 26.7432 3.3024 24.5314 6.14273 24.5314ZM30.9996 24.5314H37.8594C40.6976 24.5314 43 26.7432 43 29.4739V36.0596C43 38.7882 40.6976 41 37.8594 41H30.9996C28.1592 41 25.8568 38.7882 25.8568 36.0596V29.4739C25.8568 26.7432 28.1592 24.5314 30.9996 24.5314Z" stroke="#FFA100" stroke-width="1.5" stroke-linecap="round" stroke-linejoin="round"/>
</svg>
