<svg width="42" height="40" viewBox="0 0 42 40" fill="none" xmlns="http://www.w3.org/2000/svg">
<path d="M41.9838 11.135L38.9861 1.13554C38.8818 0.790587 38.6789 0.493075 38.4082 0.288441C38.1376 0.0838062 37.8141 -0.0167025 37.4873 0.00226646H4.51273C4.18588 -0.0167025 3.86243 0.0838062 3.59178 0.288441C3.32114 0.493075 3.11817 0.790587 3.01388 1.13554L0.0161955 11.135C-0.00539851 11.3119 -0.00539851 11.4913 0.0161955 11.6683V21.6677C0.0161955 22.1097 0.174109 22.5336 0.455196 22.8462C0.736284 23.1587 1.11752 23.3343 1.51504 23.3343H3.01388V40H6.01157V23.3343H15.0046V40H38.9861V23.3343H40.485C40.8825 23.3343 41.2637 23.1587 41.5448 22.8462C41.8259 22.5336 41.9838 22.1097 41.9838 21.6677V11.6683C42.0054 11.4913 42.0054 11.3119 41.9838 11.135ZM35.9884 36.6669H18.0023V23.3343H35.9884V36.6669ZM38.9861 20.0011H32.9907V13.3348H29.9931V20.0011H22.4988V13.3348H19.5012V20.0011H12.0069V13.3348H9.00925V20.0011H3.01388V11.9349L5.59189 3.33541H36.4081L38.9861 11.9349V20.0011Z" fill="#FFA100"/>
<path d="M41.9838 11.135L38.9861 1.13554C38.8818 0.790587 38.6789 0.493075 38.4082 0.288441C38.1376 0.0838062 37.8141 -0.0167025 37.4873 0.00226646H4.51273C4.18588 -0.0167025 3.86243 0.0838062 3.59178 0.288441C3.32114 0.493075 3.11817 0.790587 3.01388 1.13554L0.0161955 11.135C-0.00539851 11.3119 -0.00539851 11.4913 0.0161955 11.6683V21.6677C0.0161955 22.1097 0.174109 22.5336 0.455196 22.8462C0.736284 23.1587 1.11752 23.3343 1.51504 23.3343H3.01388V40H6.01157V23.3343H15.0046V40H38.9861V23.3343H40.485C40.8825 23.3343 41.2637 23.1587 41.5448 22.8462C41.8259 22.5336 41.9838 22.1097 41.9838 21.6677V11.6683C42.0054 11.4913 42.0054 11.3119 41.9838 11.135ZM35.9884 36.6669H18.0023V23.3343H35.9884V36.6669ZM38.9861 20.0011H32.9907V13.3348H29.9931V20.0011H22.4988V13.3348H19.5012V20.0011H12.0069V13.3348H9.00925V20.0011H3.01388V11.9349L5.59189 3.33541H36.4081L38.9861 11.9349V20.0011Z" stroke="black"/>
</svg>
